<?xml version="1.0" encoding="utf-8"?>
<!-- Generator: Adobe Illustrator 23.1.1, SVG Export Plug-In . SVG Version: 6.00 Build 0)  -->
<svg version="1.1" id="Capa_1" xmlns="http://www.w3.org/2000/svg" xmlns:xlink="http://www.w3.org/1999/xlink" x="0px" y="0px"
	 viewBox="0 0 595.3 595.3" style="enable-background:new 0 0 595.3 595.3;" xml:space="preserve">
<style type="text/css">
	.st0{fill-rule:evenodd;clip-rule:evenodd;fill:#A43E3A;}
</style>
<path class="st0" d="M227,280.2c0.7,0.7,4.8,2.1,5.8,2.3c0.7,0.2,5.5,2.1,6,2.3c0.5,24.7,0,51.2,0,76v22.1h20.5
	c0.2-2.1,0.5-3.9,0.7-5.8c0.2-1.8,0.5-3.7,0.7-5.8c0.2-3.7,1.2-7.8,1.4-11.3l7.1-58.5c0.2-0.9,0-1.6,0.2-2.8
	c0.9-6.9,1.4-5.3-2.5-8.1c-2.3-1.6-3.9-2.3-6.5-4.1c-1.6-1.2-0.9-1.6-0.9-3.9c0-5.8-0.5-13.8,0-18.7c6-0.2,8.5-0.2,14.7,0l0.5,1.6
	c0,1.4-0.5,12.7,0.2,13.4c1.2,0.9,13.4,0.5,15.7,0.2V264c4.4-0.5,10.1,0,14.5,0c0.2,0.5,0,0,0.2,0.5c0.9,1.8-0.5,13.4,0.5,14.7h15.7
	c0.5-0.9-0.2-10.8,0.2-15.4h13.1c3,0,2.1-0.7,2.1,8.3v8.1c0,6,0.9,4.8-3.7,8.1c-1.8,1.2-5.3,3.2-7.1,4.8c0.2,1.4,0.5,4.6,0.5,5.1
	l1.4,11.3c0,1.2,0.5,1.8,0.5,2.5c0.2,2.3,0.5,5.8,0.9,8.5c0.9,4.8,1.2,11.8,2.1,17.1c0.9,4.6,2.1,16.8,2.8,22.4
	c0.5,3.7,0.9,7.4,1.2,11.3l1.6,11.5h20.3c0.2-10.4,0-20.7,0-31.1l0.2-67.1c3-1.6,10.4-3.5,11.8-4.8c0-1.2-6.5-8.1-7.6-9.7
	c-1.2-1.8-7.1-17.1-8.3-20.3l-3.5-8.1c-1.2-2.5-2.1-5.8-3.2-8.3c-1.2-2.8-2.1-5.3-3.2-8.1c-2.5-7.1-2.3-3.5-2.5-12.2h-1.4
	c-0.5,1.2-0.2,3.5-0.2,4.8c0,2.3-8.5,21.9-9.7,24.4c-0.5,1.2-1.2,3.2-2.1,3.9c-1.2,0.2-53.9,0.2-59.7,0c-1.4-2.3-7.8-19.1-9-22.1
	c-4.1-9.4-1.4-8.3-2.3-11.3c-1.4,0-1.6-0.2-1.6,1.2c-0.2,3.2,0.5,3.7-1.2,7.8l-10.4,25.8c-2.3,6-6.2,15.9-8.8,21.4
	C234.1,271.9,227.7,278.1,227,280.2"/>
</svg>
